#!OML:ASF F:\VICON\USERDATA\INSTALL\rory3\rory3.ASF
:FULLY-SPECIFIED
:DEGREES
1066
root 3.12987 16.4504 0.694335 10.6166 5.5186 6.1279
lowerback -6.26255 1.91296 -3.24191
upperback -0.416169 2.83441 -1.69643
thorax 3.00941 1.37892 0.313938
lowerneck 4.11518 7.41533 5.81639
upperneck 57.7726 11.3545 3.67691
head 25.808 6.22577 3.14889
rclavicle -1.81639e-014 8.34896e-015
rhumerus -47.1572 3.40774 -87.3128
rradius 59.2239
rwrist -48.2206
rhand -6.32997 -51.4458
rfingers 7.12502
rthumb 19.5151 -80.4864
lclavicle -1.81639e-014 8.34896e-015
lhumerus -24.6461 -5.60276 88.0085
lradius 36.3269
lwrist 68.9089
lhand -37.2818 -12.3884
lfingers 7.12502
lthumb -10.3465 17.337
rfemur -51.8587 16.474 4.64212
rtibia 76.4592
rfoot 6.45513 14.46
rtoes -32.727
lfemur -29.3302 -7.85871 -32.0102
ltibia 46.8764
lfoot -23.2033 15.2299
ltoes 5.83479
1067
root 3.14019 16.4445 0.697154 10.5682 5.55433 5.96705
lowerback -6.23938 1.92099 -2.94305
upperback -0.356819 2.82434 -1.67447
thorax 3.07122 1.37653 0.169615
lowerneck 4.00487 7.44643 5.77202
upperneck 57.7254 11.4024 3.67223
head 25.7856 6.23102 3.1637
rclavicle -2.17172e-014 1.94809e-014
rhumerus -47.1556 3.42408 -87.2875
rradius 59.3809
rwrist -48.1221
rhand -7.31244 -48.6571
rfingers 7.12502
rthumb 18.5703 -77.7907
lclavicle -2.17172e-014 1.94809e-014
lhumerus -24.5086 -5.38571 87.9974
lradius 36.2066
lwrist 68.5526
lhand -37.3241 -12.4492
lfingers 7.12502
lthumb -10.3873 17.2742
rfemur -51.5896 16.4063 4.8655
rtibia 76.397
rfoot 5.86656 14.5287
rtoes -33.0681
lfemur -29.2955 -7.83757 -31.8911
ltibia 46.9127
lfoot -23.2965 15.1873
ltoes 5.95852
1068
root 3.14916 16.445 0.6949 10.5486 5.55995 5.79354
lowerback -6.24524 1.94013 -2.69298
upperback -0.278094 2.83398 -1.6464
thorax 3.16623 1.38291 0.0619002
lowerneck 3.9148 7.46804 5.87614
upperneck 57.6315 11.455 3.56368
head 25.7455 6.26348 3.0857
rclavicle -4.17448e-015 -1.43125e-014
rhumerus -46.996 3.46311 -87.2791
rradius 59.3537
rwrist -48.0254
rhand -7.38432 -49.1103
rfingers 7.12502
rthumb 18.5012 -78.2505
lclavicle -4.17448e-015 -1.43125e-014
lhumerus -24.3241 -5.28138 87.9796
lradius 36.1107
lwrist 68.3088
lhand -38.1494 -11.9593
lfingers 7.12502
lthumb -11.1834 17.7226
rfemur -51.5759 16.409 5.0229
rtibia 76.3497
rfoot 6.07209 14.6085
rtoes -32.3782
lfemur -29.3276 -7.77936 -31.7439
ltibia 46.9477
lfoot -23.3805 15.1014
ltoes 6.21469
1069
root 3.15428 16.4447 0.695215 10.547 5.57462 5.94269
lowerback -6.284 1.90443 -2.81734
upperback -0.157665 2.8025 -1.69739
thorax 3.3099 1.36308 0.0800143
lowerneck 3.7184 7.49751 5.94824
upperneck 57.5837 11.5267 3.4581
head 25.8117 6.28762 3.03723
rclavicle 5.91384e-015 -1.03368e-014
rhumerus -46.7525 3.53243 -87.2972
rradius 59.3044
rwrist -48.0033
rhand -7.48074 -49.1605
rfingers 7.12502
rthumb 18.4084 -78.3094
lclavicle 5.91384e-015 -1.03368e-014
lhumerus -24.1128 -5.20176 87.9251
lradius 36.157
lwrist 68.3273
lhand -39.7555 -11.2327
lfingers 7.12502
lthumb -12.732 18.3592
rfemur -51.5574 16.3166 4.85932
rtibia 76.3466
rfoot 6.06068 14.7324
rtoes -32.7059
lfemur -29.28 -7.79817 -31.9287
ltibia 46.9508
lfoot -23.4384 15.0383
ltoes 6.34329
1070
root 3.15591 16.4476 0.696826 10.6264 5.5438 6.11254
lowerback -6.34588 1.86744 -3.00079
upperback -0.129052 2.77212 -1.75178
thorax 3.36906 1.34443 0.126462
lowerneck 3.55813 7.54154 5.85326
upperneck 57.6075 11.5867 3.50609
head 25.8885 6.28302 3.11043
rclavicle -3.18055e-015 -3.18055e-015
rhumerus -46.6964 3.5494 -87.3128
rradius 59.4033
rwrist -47.9731
rhand -7.33507 -49.1773
rfingers 7.12502
rthumb 18.5485 -78.313
lclavicle -3.18055e-015 -3.18055e-015
lhumerus -23.9758 -5.14825 87.873
lradius 36.162
lwrist 68.5094
lhand -40.6215 -11.0682
lfingers 7.12502
lthumb -13.5668 18.4698
rfemur -51.6884 16.283 4.63457
rtibia 76.3294
rfoot 6.36239 14.652
rtoes -32.2508
lfemur -29.2975 -7.79969 -32.1121
ltibia 46.9091
lfoot -23.3668 15.0435
ltoes 6.03833
1071
root 3.15916 16.4465 0.697054 10.7506 5.59394 6.07973
lowerback -6.4222 1.83462 -2.98019
upperback -0.219707 2.72692 -1.74255
thorax 3.31948 1.32353 0.12147
lowerneck 3.62937 7.57969 5.82002
upperneck 57.6375 11.6245 3.58395
head 25.8716 6.29805 3.16447
rclavicle -1.4064e-014 4.77083e-015
rhumerus -46.8253 3.53585 -87.3252
rradius 59.4395
rwrist -47.8958
rhand -6.93438 -49.1331
rfingers 7.12502
rthumb 18.9339 -78.2315
lclavicle -1.4064e-014 4.77083e-015
lhumerus -24.0454 -5.14514 87.8634
lradius 36.0681
lwrist 68.6293
lhand -36.8468 -12.7683
lfingers 7.12502
lthumb -9.92683 16.9777
rfemur -51.7524 16.2107 4.64658
rtibia 76.3371
rfoot 5.91521 14.7388
rtoes -33.5892
lfemur -29.429 -7.88424 -32.063
ltibia 46.8876
lfoot -23.2308 15.138
ltoes 5.5022
1072
root 3.16412 16.448 0.695406 10.8698 5.64275 6.00532
lowerback -6.42052 1.82364 -2.97427
upperback -0.391265 2.70502 -1.71199
thorax 3.1402 1.31624 0.144203
lowerneck 3.85966 7.56088 5.95007
upperneck 57.5881 11.6249 3.48653
head 25.748 6.33212 3.05501
rclavicle 2.20651e-014 -1.51076e-014
rhumerus -47.0065 3.55169 -87.3329
rradius 59.3486
rwrist -47.8459
rhand -6.68628 -48.9795
rfingers 7.12502
rthumb 19.1725 -78.0544
lclavicle 2.20651e-014 -1.51076e-014
lhumerus -24.3503 -5.16336 87.8913
lradius 36.0483
lwrist 68.5207
lhand -40.2601 -12.3867
lfingers 7.12502
lthumb -13.2185 17.1742
rfemur -51.871 16.152 4.67693
rtibia 76.3126
rfoot 5.95488 14.6981
rtoes -33.6349
lfemur -29.529 -8.00453 -31.9779
ltibia 46.8289
lfoot -23.1891 15.1994
ltoes 5.43333
1073
root 3.16467 16.451 0.695759 10.9865 5.39389 5.90758
lowerback -6.5226 1.91878 -3.10815
upperback -0.520805 2.83922 -1.64187
thorax 3.05027 1.38289 0.303761
lowerneck 4.10977 7.47359 6.06209
upperneck 57.4478 11.5902 3.21139
head 25.5317 6.34051 2.82413
rclavicle 4.95968e-014 -3.10104e-014
rhumerus -47.1084 3.56969 -87.2784
rradius 59.2632
rwrist -47.8252
rhand -6.72384 -49.0092
rfingers 7.12502
rthumb 19.1364 -78.0878
lclavicle 4.95968e-014 -3.10104e-014
lhumerus -24.5451 -5.18701 87.9736
lradius 35.9744
lwrist 68.4203
lhand -40.5115 -12.443
lfingers 7.12502
lthumb -13.4608 17.102
rfemur -52.13 16.4038 4.64523
rtibia 76.2681
rfoot 6.24525 14.6103
rtoes -32.8746
lfemur -29.6404 -7.8611 -31.902
ltibia 46.761
lfoot -23.2344 15.2413
ltoes 5.73317
1074
root 3.1663 16.4619 0.70696 10.8351 5.61942 6.01091
lowerback -6.56076 1.84549 -3.35987
upperback -0.429942 2.76239 -1.57376
thorax 3.15249 1.33838 0.510828
lowerneck 4.23484 7.37849 6.14418
upperneck 57.4159 11.5654 2.92943
head 25.5161 6.33428 2.62921
rclavicle 4.3832e-014 1.66979e-014
rhumerus -47.1158 3.59668 -87.19
rradius 59.2061
rwrist -47.8563
rhand -6.8243 -48.933
rfingers 7.12502
rthumb 19.0398 -78.0211
lclavicle 4.3832e-014 1.66979e-014
lhumerus -24.4928 -5.19176 88.07
lradius 35.8024
lwrist 68.4036
lhand -40.8062 -12.1739
lfingers 7.12502
lthumb -13.7449 17.3521
rfemur -51.7509 16.3506 4.654
rtibia 76.1856
rfoot 6.22095 14.4636
rtoes -32.5973
lfemur -29.301 -8.01389 -31.9937
ltibia 46.6174
lfoot -23.2693 15.1877
ltoes 5.86847
1075
root 3.17062 16.4662 0.712117 10.7496 5.66783 6.1778
lowerback -6.57938 1.80762 -3.56222
upperback -0.311957 2.73246 -1.58954
thorax 3.27754 1.31743 0.607842
lowerneck 4.15999 7.35584 6.13459
upperneck 57.4623 11.555 2.8832
head 25.6216 6.31857 2.61764
rclavicle -2.06239e-014 1.94809e-014
rhumerus -46.923 3.66895 -87.1695
rradius 59.0962
rwrist -47.9663
rhand -6.90878 -48.8865
rfingers 7.12502
rthumb 18.9585 -77.9826
lclavicle -2.06239e-014 1.94809e-014
lhumerus -24.3432 -5.21483 88.062
lradius 35.7623
lwrist 68.4264
lhand -41.3584 -11.6893
lfingers 7.12502
lthumb -14.277 17.7999
rfemur -51.5359 16.3097 4.52573
rtibia 76.1343
rfoot 5.85962 14.5691
rtoes -33.6476
lfemur -29.1021 -8.10769 -32.1811
ltibia 46.5122
lfoot -23.2871 15.1692
ltoes 6.01871
